<?xml version="1.0" encoding="iso-8859-1"?>
<!-- Generator: Adobe Illustrator 19.0.0, SVG Export Plug-In . SVG Version: 6.00 Build 0)  -->
<svg version="1.1" id="Layer_1" xmlns="http://www.w3.org/2000/svg" xmlns:xlink="http://www.w3.org/1999/xlink" x="0px" y="0px"
	 viewBox="0 0 512 512" style="enable-background:new 0 0 512 512;" xml:space="preserve">
<polygon style="fill:#2197D8;" points="260.509,69.224 295.523,153.932 321.868,217.675 350.812,287.702 372.071,339.137 
	358.791,339.137 162.228,339.137 148.959,339.137 161.279,309.323 193.24,232.006 222.173,161.991 "/>
<polygon style="fill:#2BA5F7;" points="260.513,69.224 273.709,153.932 283.638,217.675 294.545,287.702 302.557,339.137 
	297.553,339.137 223.473,339.137 218.473,339.137 223.116,309.323 235.162,232.006 246.066,161.991 "/>
<path style="fill:#F2F2F2;" d="M372.071,391.962c0,14.274-2.679,27.927-7.572,40.472c-16.196,41.602-56.645,71.089-103.978,71.089
	c-47.344,0-87.805-29.487-104-71.089c-4.894-12.545-7.572-26.198-7.572-40.472c0-8.329,0.915-16.456,2.656-24.277
	c0.486-2.193,1.04-4.363,1.65-6.51c2.215-7.719,5.244-15.099,8.974-22.039h196.563c3.741,6.939,6.759,14.32,8.974,22.039
	c0.622,2.147,1.175,4.317,1.661,6.51C371.155,375.507,372.071,383.633,372.071,391.962z"/>
<g>
	<path style="fill:#CCCCCC;" d="M148.948,391.962c0,14.274,2.679,27.927,7.572,40.472c-2.961,0.882-6.08,1.345-9.324,1.345
		c-18.343,0-33.194-14.862-33.194-33.205c0-18.332,14.851-33.194,33.194-33.194c1.503,0,2.961,0.09,4.408,0.305
		C149.864,375.507,148.948,383.633,148.948,391.962z"/>
	<path style="fill:#CCCCCC;" d="M373.823,367.381c18.343,0,33.205,14.862,33.205,33.194c0,18.343-14.862,33.205-33.205,33.205
		c-3.244,0-6.363-0.463-9.324-1.345c4.894-12.545,7.572-26.198,7.572-40.472c0-8.329-0.915-16.456-2.645-24.277
		C370.873,367.471,372.319,367.381,373.823,367.381z"/>
</g>
<path style="fill:#B3B3B3;" d="M367.765,361.176H153.254c2.215-7.719,5.244-15.099,8.974-22.039h196.563
	C362.532,346.076,365.55,353.457,367.765,361.176z"/>
<g>
	<path style="fill:#E09B2D;" d="M350.812,287.702c-19.62-4.769-38.958-6.781-57.346-6.928c-24.57-0.203-47.434,2.893-67.02,7.132
		c-39.173,8.454-65.167,21.417-65.167,21.417l31.962-77.316c11.969-3.888,26.797-7.968,43.637-11.031
		c14.24-2.611,29.916-4.498,46.496-4.95c12.398-0.35,25.305,0.102,38.494,1.65L350.812,287.702z"/>
	<path style="fill:#E09B2D;" d="M295.523,153.932c-7.414-0.124-14.67,0.068-21.734,0.509c-9.369,0.554-18.4,1.56-26.989,2.859
		c-8.691,1.311-16.93,2.916-24.627,4.69l38.336-92.766L295.523,153.932z"/>
</g>
<path style="fill:#F24C8F;" d="M260.509,8.476c16.783,0,30.38,13.596,30.38,30.38c0,16.772-13.596,30.368-30.38,30.368
	c-16.772,0-30.368-13.596-30.368-30.368C230.141,22.073,243.737,8.476,260.509,8.476z"/>
<g>
	<path style="fill:#F7B239;" d="M273.789,154.441c-9.369,0.554-18.4,1.56-26.989,2.859l13.709-88.076l13.201,84.708L273.789,154.441
		z"/>
	<path style="fill:#F7B239;" d="M293.466,280.774c-24.57-0.203-47.434,2.893-67.02,7.132l8.714-55.899l1.718-11.031
		c14.24-2.611,29.916-4.498,46.496-4.95l0.26,1.65L293.466,280.774z"/>
</g>
<path d="M165.058,316.91l-7.563-15.172c0.967-0.483,24.091-11.913,59.724-20.434c32.929-7.875,83.187-14.586,135.597-1.839
	l-4.007,16.473C254.843,273.083,165.944,316.47,165.058,316.91z"/>
<path d="M195.864,240.067l-5.247-16.121c31.122-10.129,79.327-20.902,132.239-14.689l-1.976,16.836
	C271.017,220.243,225.374,230.462,195.864,240.067z"/>
<path d="M224.073,170.251l-3.799-16.521c25.594-5.886,50.976-8.669,75.386-8.273l-0.276,16.951
	C272.336,162.03,248.333,164.671,224.073,170.251z"/>
<g>
	<path style="fill:#2BA5F7;" d="M122.565,231.15c-4.682,0-8.476-3.795-8.476-8.476v-7.416c0-4.681,3.794-8.476,8.476-8.476
		s8.476,3.795,8.476,8.476v7.416C131.041,227.356,127.246,231.15,122.565,231.15z"/>
	<path style="fill:#2BA5F7;" d="M122.565,269.081c-4.682,0-8.476-3.795-8.476-8.476v-7.416c0-4.681,3.794-8.476,8.476-8.476
		s8.476,3.795,8.476,8.476v7.416C131.041,265.286,127.246,269.081,122.565,269.081z"/>
	<path style="fill:#2BA5F7;" d="M145.238,246.407h-7.417c-4.682,0-8.476-3.795-8.476-8.476s3.794-8.476,8.476-8.476h7.417
		c4.682,0,8.476,3.795,8.476,8.476S149.92,246.407,145.238,246.407z"/>
	<path style="fill:#2BA5F7;" d="M107.308,246.407h-7.417c-4.682,0-8.476-3.795-8.476-8.476s3.794-8.476,8.476-8.476h7.417
		c4.682,0,8.476,3.795,8.476,8.476S111.99,246.407,107.308,246.407z"/>
</g>
<g>
	<path style="fill:#CC1B5B;" d="M393.263,110.168c-4.682,0-8.476-3.795-8.476-8.476V91.503c0-4.681,3.794-8.476,8.476-8.476
		c4.682,0,8.476,3.795,8.476,8.476v10.189C401.74,106.373,397.945,110.168,393.263,110.168z"/>
	<path style="fill:#CC1B5B;" d="M393.263,162.278c-4.682,0-8.476-3.795-8.476-8.476v-10.189c0-4.681,3.794-8.476,8.476-8.476
		c4.682,0,8.476,3.795,8.476,8.476v10.189C401.74,158.482,397.945,162.278,393.263,162.278z"/>
	<path style="fill:#CC1B5B;" d="M424.412,131.127h-10.189c-4.682,0-8.476-3.795-8.476-8.476c0-4.681,3.794-8.476,8.476-8.476h10.189
		c4.682,0,8.476,3.795,8.476,8.476C432.889,127.332,429.094,131.127,424.412,131.127z"/>
	<path style="fill:#CC1B5B;" d="M372.301,131.127h-10.188c-4.682,0-8.476-3.795-8.476-8.476c0-4.681,3.794-8.476,8.476-8.476h10.189
		c4.682,0,8.476,3.795,8.476,8.476C380.779,127.332,376.984,131.127,372.301,131.127z"/>
	<path style="fill:#CC1B5B;" d="M98.77,120.791c-3.804,0-7.58-0.906-11.06-2.696c-5.759-2.962-10.02-7.988-11.998-14.155
		c-1.431-4.457,1.024-9.23,5.483-10.661c4.459-1.431,9.231,1.024,10.661,5.483c0.594,1.855,1.876,3.367,3.608,4.257
		c1.729,0.889,3.704,1.053,5.562,0.458c4.455-1.426,9.229,1.024,10.661,5.481c1.431,4.457-1.024,9.23-5.483,10.661
		C103.763,120.403,101.26,120.791,98.77,120.791z"/>
	<path style="fill:#CC1B5B;" d="M450.068,348.215c-3.804,0-7.58-0.906-11.061-2.696c-5.759-2.962-10.02-7.988-11.998-14.155
		c-1.431-4.457,1.024-9.23,5.483-10.661c4.46-1.431,9.231,1.025,10.661,5.483c0.594,1.855,1.876,3.367,3.608,4.257
		c1.734,0.892,3.709,1.053,5.563,0.459c4.455-1.429,9.229,1.024,10.661,5.481c1.431,4.457-1.024,9.23-5.483,10.661
		C455.061,347.826,452.557,348.215,450.068,348.215z"/>
</g>
<g>
	<path style="fill:#F7B239;" d="M387.006,241.089c-3.987,0-8.029-0.984-11.752-3.057c-4.09-2.277-5.559-7.439-3.282-11.529
		c2.277-4.09,7.439-5.562,11.529-3.283c3.509,1.954,7.963,0.689,9.917-2.825c2.277-4.089,7.439-5.558,11.529-3.282
		c4.09,2.278,5.559,7.44,3.282,11.53C403.8,236.599,395.525,241.089,387.006,241.089z"/>
	<path style="fill:#F7B239;" d="M60.769,358.95c-3.986,0-8.028-0.984-11.752-3.058c-4.09-2.277-5.559-7.439-3.282-11.529
		c2.276-4.09,7.439-5.562,11.529-3.283c3.512,1.955,7.962,0.688,9.917-2.824c2.277-4.09,7.439-5.558,11.529-3.282
		c4.09,2.277,5.559,7.439,3.282,11.529C77.564,354.458,69.288,358.95,60.769,358.95z"/>
</g>
<path d="M375.936,358.957c-1.1-3.847-2.393-7.631-3.871-11.344h0.006c2.83,0,5.474-1.413,7.046-3.765
	c1.573-2.352,1.868-5.335,0.788-7.95L272.412,75.829c15.619-5.037,26.954-19.704,26.954-36.973C299.366,17.431,281.935,0,260.509,0
	c-21.419,0-38.845,17.431-38.845,38.856c0,17.268,11.329,31.935,26.944,36.972L141.125,335.899c-1.08,2.615-0.784,5.598,0.788,7.95
	c1.572,2.352,4.216,3.764,7.046,3.765c-1.479,3.718-2.772,7.503-3.87,11.344c-22.001,1.102-39.562,19.347-39.562,41.617
	c0,22.982,18.693,41.682,41.67,41.682c1.412,0,2.811-0.096,4.203-0.237c8.93,19.478,22.845,36.158,40.598,48.518
	C212.165,504.578,235.861,512,260.521,512c24.654,0,48.344-7.422,68.509-21.465c17.749-12.36,31.662-29.043,40.59-48.518
	c1.392,0.141,2.792,0.237,4.203,0.237c22.984,0,41.682-18.698,41.682-41.682C415.504,378.306,397.941,360.061,375.936,358.957z
	 M238.618,38.856c0-12.077,9.82-21.903,21.892-21.903c12.078,0,21.903,9.826,21.903,21.903c0,12.072-9.825,21.892-21.903,21.892
	C248.439,60.748,238.618,50.928,238.618,38.856z M260.511,91.417l98.884,239.244H161.633L260.511,91.417z M122.479,400.574
	c0-11.657,8.114-21.449,18.99-24.04c-0.657,5.103-0.997,10.261-0.997,15.428c0,11.36,1.569,22.501,4.667,33.248
	C132.469,424.159,122.479,413.515,122.479,400.574z M319.342,476.624c-17.307,12.054-37.648,18.423-58.821,18.423
	c-21.18,0-41.526-6.371-58.838-18.424c-16.929-11.787-29.816-28.13-37.266-47.269c-4.639-11.894-6.994-24.475-6.994-37.391
	c0-7.572,0.825-15.121,2.455-22.441c1.675-7.55,4.224-14.895,7.569-21.908h186.127c3.336,6.987,5.887,14.332,7.575,21.901
	c1.623,7.342,2.445,14.894,2.445,22.448c0,12.917-2.353,25.497-6.995,37.397C349.151,448.493,336.267,464.838,319.342,476.624z
	 M375.881,425.21c3.098-10.749,4.667-21.89,4.667-33.248c0-5.158-0.339-10.315-0.995-15.428c10.88,2.592,18.999,12.384,18.999,24.04
	C398.551,413.515,388.556,424.16,375.881,425.21z"/>
<path d="M228.584,393.673c2.169,0,4.339-0.827,5.995-2.483c3.31-3.31,3.31-8.678,0-11.987c-6.021-6.021-14.025-9.335-22.538-9.335
	c-8.515,0-16.519,3.316-22.539,9.335c-3.31,3.31-3.31,8.678,0,11.987c3.311,3.31,8.678,3.31,11.988,0
	c5.817-5.818,15.286-5.816,21.102,0C224.245,392.846,226.415,393.673,228.584,393.673z"/>
<path d="M308.985,369.868c-8.515,0-16.519,3.316-22.539,9.335c-3.31,3.31-3.31,8.678,0,11.987c3.311,3.31,8.678,3.31,11.988,0
	c5.817-5.818,15.286-5.816,21.102,0c1.656,1.655,3.826,2.483,5.995,2.483c2.169,0,4.339-0.827,5.995-2.483
	c3.31-3.31,3.31-8.678,0-11.987C325.502,373.183,317.498,369.868,308.985,369.868z"/>
<path d="M287.291,434.426c-14.765,14.765-38.79,14.765-53.556,0c-3.311-3.31-8.678-3.31-11.988,0c-3.31,3.31-3.31,8.678,0,11.987
	c10.688,10.688,24.727,16.032,38.767,16.032s28.079-5.345,38.767-16.032c3.31-3.31,3.31-8.678,0-11.987
	C295.967,431.116,290.601,431.116,287.291,434.426z"/>
<path style="fill:#CC1B5B;" d="M251.188,419.528h18.647c4.682,0,8.476-3.795,8.476-8.476c0-4.681-3.794-8.476-8.476-8.476h-18.647
	c-4.682,0-8.476,3.795-8.476,8.476C242.711,415.732,246.506,419.528,251.188,419.528z"/>
<circle style="fill:#F7B239;" cx="52.565" cy="199.502" r="8.476"/>
<g>
	<circle style="fill:#2BA5F7;" cx="459.435" cy="264.748" r="8.476"/>
	<circle style="fill:#2BA5F7;" cx="337.374" cy="34.493" r="8.476"/>
</g>
<g>
</g>
<g>
</g>
<g>
</g>
<g>
</g>
<g>
</g>
<g>
</g>
<g>
</g>
<g>
</g>
<g>
</g>
<g>
</g>
<g>
</g>
<g>
</g>
<g>
</g>
<g>
</g>
<g>
</g>
</svg>
